<?xml version="1.0" encoding="utf-8"?>
<!-- Generator: Adobe Illustrator 24.0.0, SVG Export Plug-In . SVG Version: 6.00 Build 0)  -->
<svg version="1.1" id="Layer_1" xmlns="http://www.w3.org/2000/svg" xmlns:xlink="http://www.w3.org/1999/xlink" x="0px" y="0px"
	 viewBox="0 0 443.3 405.6" style="enable-background:new 0 0 443.3 405.6;" xml:space="preserve">
<style type="text/css">
	.st0{fill:#63B043;}
	.st1{fill:#8BC83B;}
	.st2{fill:#D6DD28;}
	.st3{fill:#56853F;}
</style>
<g id="Layer_3">
	<path class="st0" d="M319.1,145c23.3-48.2,85.1-97.1,87.9-133.6c13.4,17.9,25.3,37.4,31.3,58.9c7.2,25.2,6.2,52.2,0.6,77.9
		c-5.6,25.7-15.7,50.1-26.4,74c-19.3,42.6-57.1,80.5-65.8,123.7c-7.4-76.7,19.9-174.5,43.8-231.5c-36.4,51.1-50.3,114.5-63.3,176
		C327.4,289.4,286.2,213,319.1,145z"/>
</g>
<g id="Layer_2_1_">
	<path class="st1" d="M159.8,145.9C148.9,98.1,165.2,27.7,146.5,0c19.8,5.1,39.5,12.3,56.1,24.3c19.5,14,34.3,34,44.9,55.5
		c10.7,21.6,17.4,44.8,23.3,68.1c10.5,41.6,5,90.3,23.6,126.3c-49.1-50.7-85.3-136.4-100.8-190.9c3,57.5,29.3,110.8,55.2,162.2
		C248.3,244.5,175,213.3,159.8,145.9z"/>
</g>
<g id="Layer_4">
	<path class="st2" d="M100.1,163c-33.3-3.3-79.6,13.6-100.1,3.2c5.1,13,11.7,25.7,21.1,36C32.2,214.3,47,222.6,62.5,228
		c15.5,5.4,31.8,8.1,48.1,10c29.1,3.6,61.7-4.1,87.5,5.4c-38.4-29.1-99.4-46.4-137.7-52.3C99.6,188.4,138,201.8,175,215
		C174.4,214.8,147,167.7,100.1,163z"/>
</g>
<g id="Layer_5">
	<path class="st3" d="M157.1,295.2c-42.6,20.6-86.1,75.3-118.4,77.9c15.8,12,33.2,22.4,52.2,27.9c22.4,6.4,46.4,5.5,69.1,0.5
		c22.8-4.9,44.4-13.9,65.5-23.5c37.8-17.1,71.3-50.7,109.7-58.3c-68-6.5-154.6,17.7-205.2,38.9c45.4-32.4,101.5-44.7,156-56.2
		C285,302.6,217.3,266.2,157.1,295.2z"/>
</g>
</svg>
